<mxfile host="app.diagrams.net" modified="2023-04-24T11:31:45.226Z" agent="Mozilla/5.0 (Linux; Android 13; M2012K11AC) AppleWebKit/537.36 (KHTML, like Gecko) Chrome/111.0.0.0 Mobile Safari/537.36 EdgA/111.0.1661.59" etag="ZDbw2xQzXyPZmqcqlOkG" version="21.2.1" type="github">
  <diagram name="第 1 页" id="Em-Xw_e7k-aKN8NRgrZc">
    <mxGraphModel dx="1620" dy="346" grid="1" gridSize="10" guides="1" tooltips="1" connect="1" arrows="1" fold="1" page="1" pageScale="1" pageWidth="827" pageHeight="1169" math="0" shadow="0">
      <root>
        <mxCell id="0" />
        <mxCell id="1" parent="0" />
        <mxCell id="7PT6G1Jtv1E3yQdZefuV-4" value="" style="edgeStyle=orthogonalEdgeStyle;rounded=0;orthogonalLoop=1;jettySize=auto;html=1;" parent="1" source="7PT6G1Jtv1E3yQdZefuV-1" target="7PT6G1Jtv1E3yQdZefuV-2" edge="1">
          <mxGeometry relative="1" as="geometry" />
        </mxCell>
        <mxCell id="7PT6G1Jtv1E3yQdZefuV-1" value="开始&lt;br&gt;" style="rounded=0;whiteSpace=wrap;html=1;" parent="1" vertex="1">
          <mxGeometry x="354" y="80" width="86" height="30" as="geometry" />
        </mxCell>
        <mxCell id="7PT6G1Jtv1E3yQdZefuV-6" value="" style="edgeStyle=orthogonalEdgeStyle;rounded=0;orthogonalLoop=1;jettySize=auto;html=1;" parent="1" source="7PT6G1Jtv1E3yQdZefuV-2" target="7PT6G1Jtv1E3yQdZefuV-5" edge="1">
          <mxGeometry relative="1" as="geometry" />
        </mxCell>
        <mxCell id="7PT6G1Jtv1E3yQdZefuV-2" value="初始化红外线接收器" style="rounded=0;whiteSpace=wrap;html=1;" parent="1" vertex="1">
          <mxGeometry x="319" y="150" width="156" height="30" as="geometry" />
        </mxCell>
        <mxCell id="7PT6G1Jtv1E3yQdZefuV-8" value="" style="edgeStyle=orthogonalEdgeStyle;rounded=0;orthogonalLoop=1;jettySize=auto;html=1;" parent="1" source="7PT6G1Jtv1E3yQdZefuV-5" target="7PT6G1Jtv1E3yQdZefuV-7" edge="1">
          <mxGeometry relative="1" as="geometry" />
        </mxCell>
        <mxCell id="7PT6G1Jtv1E3yQdZefuV-5" value="初始化LCD屏幕" style="rounded=0;whiteSpace=wrap;html=1;" parent="1" vertex="1">
          <mxGeometry x="319" y="210" width="156" height="30" as="geometry" />
        </mxCell>
        <mxCell id="7PT6G1Jtv1E3yQdZefuV-11" value="" style="edgeStyle=orthogonalEdgeStyle;rounded=0;orthogonalLoop=1;jettySize=auto;html=1;" parent="1" source="7PT6G1Jtv1E3yQdZefuV-7" target="7PT6G1Jtv1E3yQdZefuV-10" edge="1">
          <mxGeometry relative="1" as="geometry" />
        </mxCell>
        <mxCell id="7PT6G1Jtv1E3yQdZefuV-7" value="初始化定时器0&lt;br&gt;" style="rounded=0;whiteSpace=wrap;html=1;" parent="1" vertex="1">
          <mxGeometry x="319" y="270" width="156" height="30" as="geometry" />
        </mxCell>
        <mxCell id="7PT6G1Jtv1E3yQdZefuV-13" value="" style="edgeStyle=orthogonalEdgeStyle;rounded=0;orthogonalLoop=1;jettySize=auto;html=1;" parent="1" source="7PT6G1Jtv1E3yQdZefuV-10" target="7PT6G1Jtv1E3yQdZefuV-12" edge="1">
          <mxGeometry relative="1" as="geometry" />
        </mxCell>
        <mxCell id="7PT6G1Jtv1E3yQdZefuV-10" value="初始化定时器2" style="rounded=0;whiteSpace=wrap;html=1;" parent="1" vertex="1">
          <mxGeometry x="319" y="330" width="156" height="30" as="geometry" />
        </mxCell>
        <mxCell id="7PT6G1Jtv1E3yQdZefuV-17" value="" style="edgeStyle=orthogonalEdgeStyle;rounded=0;orthogonalLoop=1;jettySize=auto;html=1;" parent="1" source="7PT6G1Jtv1E3yQdZefuV-12" target="7PT6G1Jtv1E3yQdZefuV-16" edge="1">
          <mxGeometry relative="1" as="geometry" />
        </mxCell>
        <mxCell id="7PT6G1Jtv1E3yQdZefuV-12" value="初始化DS1302时钟芯片" style="rounded=0;whiteSpace=wrap;html=1;" parent="1" vertex="1">
          <mxGeometry x="319" y="390" width="156" height="30" as="geometry" />
        </mxCell>
        <mxCell id="7PT6G1Jtv1E3yQdZefuV-19" value="Y" style="edgeStyle=orthogonalEdgeStyle;rounded=0;orthogonalLoop=1;jettySize=auto;html=1;" parent="1" source="7PT6G1Jtv1E3yQdZefuV-16" target="7PT6G1Jtv1E3yQdZefuV-18" edge="1">
          <mxGeometry relative="1" as="geometry" />
        </mxCell>
        <mxCell id="7PT6G1Jtv1E3yQdZefuV-21" value="N" style="edgeStyle=orthogonalEdgeStyle;rounded=0;orthogonalLoop=1;jettySize=auto;html=1;" parent="1" source="7PT6G1Jtv1E3yQdZefuV-16" target="7PT6G1Jtv1E3yQdZefuV-20" edge="1">
          <mxGeometry relative="1" as="geometry" />
        </mxCell>
        <mxCell id="7PT6G1Jtv1E3yQdZefuV-16" value="判断是否读取过时间" style="rhombus;whiteSpace=wrap;html=1;rounded=0;" parent="1" vertex="1">
          <mxGeometry x="305.5" y="480" width="183" height="65" as="geometry" />
        </mxCell>
        <mxCell id="7PT6G1Jtv1E3yQdZefuV-24" value="" style="edgeStyle=orthogonalEdgeStyle;rounded=0;orthogonalLoop=1;jettySize=auto;html=1;" parent="1" source="7PT6G1Jtv1E3yQdZefuV-18" target="7PT6G1Jtv1E3yQdZefuV-23" edge="1">
          <mxGeometry relative="1" as="geometry" />
        </mxCell>
        <mxCell id="7PT6G1Jtv1E3yQdZefuV-18" value="判断当前模式并设置" style="rounded=0;whiteSpace=wrap;html=1;" parent="1" vertex="1">
          <mxGeometry x="300.5" y="630" width="193" height="30" as="geometry" />
        </mxCell>
        <mxCell id="7PT6G1Jtv1E3yQdZefuV-22" style="edgeStyle=orthogonalEdgeStyle;rounded=0;orthogonalLoop=1;jettySize=auto;html=1;entryX=0.5;entryY=0;entryDx=0;entryDy=0;" parent="1" source="7PT6G1Jtv1E3yQdZefuV-20" target="7PT6G1Jtv1E3yQdZefuV-18" edge="1">
          <mxGeometry relative="1" as="geometry">
            <Array as="points">
              <mxPoint x="560" y="610" />
              <mxPoint x="397" y="610" />
            </Array>
          </mxGeometry>
        </mxCell>
        <mxCell id="7PT6G1Jtv1E3yQdZefuV-20" value="读取时间" style="whiteSpace=wrap;html=1;rounded=0;" parent="1" vertex="1">
          <mxGeometry x="520" y="552" width="80" height="32.5" as="geometry" />
        </mxCell>
        <mxCell id="7PT6G1Jtv1E3yQdZefuV-26" value="" style="edgeStyle=orthogonalEdgeStyle;rounded=0;orthogonalLoop=1;jettySize=auto;html=1;" parent="1" source="7PT6G1Jtv1E3yQdZefuV-23" target="7PT6G1Jtv1E3yQdZefuV-25" edge="1">
          <mxGeometry relative="1" as="geometry">
            <Array as="points">
              <mxPoint x="620" y="715" />
              <mxPoint x="620" y="110" />
              <mxPoint x="847" y="110" />
            </Array>
          </mxGeometry>
        </mxCell>
        <mxCell id="7PT6G1Jtv1E3yQdZefuV-23" value="显示到LCD屏幕" style="rounded=0;whiteSpace=wrap;html=1;" parent="1" vertex="1">
          <mxGeometry x="300.5" y="700" width="193" height="30" as="geometry" />
        </mxCell>
        <mxCell id="7PT6G1Jtv1E3yQdZefuV-28" value="Y" style="edgeStyle=orthogonalEdgeStyle;rounded=0;orthogonalLoop=1;jettySize=auto;html=1;" parent="1" source="7PT6G1Jtv1E3yQdZefuV-25" target="7PT6G1Jtv1E3yQdZefuV-27" edge="1">
          <mxGeometry relative="1" as="geometry" />
        </mxCell>
        <mxCell id="7PT6G1Jtv1E3yQdZefuV-30" value="N" style="edgeStyle=orthogonalEdgeStyle;rounded=0;orthogonalLoop=1;jettySize=auto;html=1;" parent="1" source="7PT6G1Jtv1E3yQdZefuV-25" target="7PT6G1Jtv1E3yQdZefuV-29" edge="1">
          <mxGeometry relative="1" as="geometry" />
        </mxCell>
        <mxCell id="7PT6G1Jtv1E3yQdZefuV-25" value="判断是否有语音模块输入" style="rhombus;whiteSpace=wrap;html=1;rounded=0;" parent="1" vertex="1">
          <mxGeometry x="735.5" y="150" width="223" height="65" as="geometry" />
        </mxCell>
        <mxCell id="7PT6G1Jtv1E3yQdZefuV-31" style="edgeStyle=orthogonalEdgeStyle;rounded=0;orthogonalLoop=1;jettySize=auto;html=1;entryX=0.5;entryY=0;entryDx=0;entryDy=0;" parent="1" source="7PT6G1Jtv1E3yQdZefuV-27" target="7PT6G1Jtv1E3yQdZefuV-29" edge="1">
          <mxGeometry relative="1" as="geometry">
            <Array as="points">
              <mxPoint x="1065" y="260" />
              <mxPoint x="847" y="260" />
            </Array>
          </mxGeometry>
        </mxCell>
        <mxCell id="7PT6G1Jtv1E3yQdZefuV-27" value="打开风扇" style="whiteSpace=wrap;html=1;rounded=0;" parent="1" vertex="1">
          <mxGeometry x="1010" y="163.75" width="110" height="37.5" as="geometry" />
        </mxCell>
        <mxCell id="7PT6G1Jtv1E3yQdZefuV-33" value="" style="edgeStyle=orthogonalEdgeStyle;rounded=0;orthogonalLoop=1;jettySize=auto;html=1;" parent="1" source="7PT6G1Jtv1E3yQdZefuV-29" target="7PT6G1Jtv1E3yQdZefuV-32" edge="1">
          <mxGeometry relative="1" as="geometry" />
        </mxCell>
        <mxCell id="7PT6G1Jtv1E3yQdZefuV-29" value="接收红外接收器信号并做出相应反应" style="whiteSpace=wrap;html=1;rounded=0;" parent="1" vertex="1">
          <mxGeometry x="787" y="275" width="120" height="60" as="geometry" />
        </mxCell>
        <mxCell id="gzNkJ2L_O-pqb2JJaLC5-4" style="edgeStyle=orthogonalEdgeStyle;rounded=0;orthogonalLoop=1;jettySize=auto;html=1;fontSize=12;startSize=8;endSize=8;entryX=0.5;entryY=0;entryDx=0;entryDy=0;" edge="1" parent="1" source="7PT6G1Jtv1E3yQdZefuV-32" target="7PT6G1Jtv1E3yQdZefuV-29">
          <mxGeometry relative="1" as="geometry">
            <mxPoint x="850" y="250" as="targetPoint" />
            <Array as="points">
              <mxPoint x="710" y="420" />
              <mxPoint x="710" y="260" />
              <mxPoint x="847" y="260" />
            </Array>
          </mxGeometry>
        </mxCell>
        <mxCell id="7PT6G1Jtv1E3yQdZefuV-32" value="判断当前模式是否为自动模式" style="rhombus;whiteSpace=wrap;html=1;rounded=0;" parent="1" vertex="1">
          <mxGeometry x="732.25" y="395" width="229.5" height="50" as="geometry" />
        </mxCell>
        <mxCell id="7PT6G1Jtv1E3yQdZefuV-41" value="Y" style="edgeStyle=orthogonalEdgeStyle;rounded=0;orthogonalLoop=1;jettySize=auto;html=1;exitX=0.5;exitY=1;exitDx=0;exitDy=0;" parent="1" source="7PT6G1Jtv1E3yQdZefuV-32" target="7PT6G1Jtv1E3yQdZefuV-40" edge="1">
          <mxGeometry relative="1" as="geometry">
            <mxPoint x="847.0999999999999" y="574.9782135076252" as="sourcePoint" />
            <Array as="points">
              <mxPoint x="847" y="520" />
              <mxPoint x="847" y="520" />
            </Array>
          </mxGeometry>
        </mxCell>
        <mxCell id="7PT6G1Jtv1E3yQdZefuV-44" style="edgeStyle=orthogonalEdgeStyle;rounded=0;orthogonalLoop=1;jettySize=auto;html=1;" parent="1" source="7PT6G1Jtv1E3yQdZefuV-40" edge="1">
          <mxGeometry relative="1" as="geometry">
            <mxPoint x="397" y="460" as="targetPoint" />
            <Array as="points">
              <mxPoint x="680" y="667" />
              <mxPoint x="680" y="460" />
              <mxPoint x="397" y="460" />
            </Array>
          </mxGeometry>
        </mxCell>
        <mxCell id="7PT6G1Jtv1E3yQdZefuV-40" value="根据温度切换挡位" style="whiteSpace=wrap;html=1;rounded=0;" parent="1" vertex="1">
          <mxGeometry x="790.5" y="560" width="113" height="35" as="geometry" />
        </mxCell>
      </root>
    </mxGraphModel>
  </diagram>
</mxfile>
